<svg width="47" height="47" viewBox="0 0 47 47" fill="none" xmlns="http://www.w3.org/2000/svg">
<path d="M23.5 0C36.4792 0 47 10.5208 47 23.5C47 36.4792 36.4792 47 23.5 47C10.5208 47 0 36.4792 0 23.5C0 10.5208 10.5208 0 23.5 0ZM31.6065 33.0788C32.0387 31.7526 34.0638 18.5354 34.3141 15.931C34.3897 15.1422 34.1404 14.618 33.652 14.384C33.0614 14.1 32.1868 14.242 31.1722 14.6078C29.7806 15.1095 11.9901 22.6632 10.9622 23.1005C9.9875 23.5143 9.06589 23.9659 9.06589 24.6198C9.06589 25.0796 9.3387 25.3381 10.0907 25.6068C10.8733 25.8858 12.8443 26.4835 14.008 26.8043C15.1289 27.1139 16.405 26.8452 17.1203 26.4007C17.8784 25.9297 26.6275 20.0751 27.2559 19.5622C27.8833 19.0493 28.3839 19.7063 27.871 20.2202C27.3581 20.7331 21.3523 26.5622 20.5605 27.3693C19.599 28.3492 20.2815 29.3648 20.9262 29.7714C21.6629 30.2353 26.9606 33.7889 27.7586 34.359C28.5566 34.9292 29.3658 35.1877 30.1066 35.1877C30.8473 35.1877 31.2376 34.2119 31.6065 33.0788Z" fill="white"/>
</svg>
