<svg width="40" height="45" viewBox="0 0 40 45" fill="none" xmlns="http://www.w3.org/2000/svg">
<path d="M12.7273 0C10.7182 0 9.09091 1.60735 9.09091 3.59184V32.3265C9.09091 34.311 10.7182 35.9184 12.7273 35.9184H36.3636C38.3727 35.9184 40 34.311 40 32.3265V11.6735C40 11.1976 39.8092 10.7413 39.4673 10.4037L29.4673 0.526148C29.1255 0.188515 28.6636 0 28.1818 0H12.7273ZM27.2727 3.41996L36.5376 12.5714H29.0909C28.0873 12.5714 27.2727 11.7669 27.2727 10.7755V3.41996ZM3.63636 8.97959C1.62727 8.97959 0 10.5869 0 12.5714V41.3061C0 43.2906 1.62727 44.898 3.63636 44.898H27.2727C29.2818 44.898 30.9091 43.2906 30.9091 41.3061V39.5102H12.7273C8.71636 39.5102 5.45455 36.2883 5.45455 32.3265V8.97959H3.63636Z" fill="#2D2D2D"/>
</svg>
