<svg width="40" height="38" viewBox="0 0 40 38" fill="none" xmlns="http://www.w3.org/2000/svg">
<path d="M15.2286 0C6.90983 0 0 5.97615 0 13.4853C0 17.1183 1.63745 20.4118 4.25798 22.8327C3.87289 23.9638 3.05573 24.8643 2.17909 25.5747C1.69067 25.9704 1.21478 26.31 0.82655 26.6465C0.632436 26.8148 0.453976 26.9643 0.300564 27.1949C0.147151 27.4255 -0.00626174 27.8243 0.100188 28.2169L0.200376 28.516L0.475892 28.6905C1.3087 29.161 2.31997 29.2389 3.38134 29.1641C4.44271 29.0893 5.5886 28.8245 6.71259 28.516C8.26237 28.0923 9.58986 27.5875 10.6951 27.145C12.8992 32.2176 18.4314 35.7447 24.8466 35.7447C25.958 35.7447 27.0163 35.5702 28.0025 35.4207C29.1202 35.9254 31.1209 36.7574 33.2874 37.34C35.5385 37.9476 37.8397 38.3994 39.4991 37.4646L39.7996 37.2902L39.8748 36.991C39.9812 36.6016 39.8497 36.2277 39.6994 35.994C39.5492 35.7603 39.3895 35.592 39.1985 35.4207C38.8165 35.0748 38.3312 34.7258 37.846 34.3239C36.9725 33.601 36.1522 32.6912 35.742 31.582C38.3532 29.161 40 25.8831 40 22.2594C40 16.3425 35.6669 11.2949 29.7307 9.49703C27.8178 3.96333 22.0069 0 15.2286 0ZM15.2286 1.5953C22.7802 1.5953 28.779 6.94829 28.779 13.4853C28.779 20.016 22.7051 25.3753 15.1534 25.3753C14.0701 25.3753 13.0056 25.2974 12.0476 25.0761L11.7971 25.0014L11.5466 25.1011C11.4527 25.1416 11.2555 25.2288 11.1459 25.2756C11.1271 25.2818 11.0895 25.2693 11.0708 25.2756C10.8829 25.288 10.7044 25.369 10.5698 25.4999C9.43644 25.9641 7.94302 26.5437 6.28679 26.9955C5.22542 27.2853 4.15466 27.5034 3.25611 27.5688C2.85848 27.5968 2.69255 27.4784 2.37946 27.4442C2.63619 27.2448 2.85222 27.0858 3.18096 26.821C4.24859 25.9548 5.56356 24.7022 5.98622 22.8327L6.08641 22.3591L5.73575 22.0351C3.17157 19.8571 1.60301 16.8254 1.60301 13.4853C1.60301 6.95452 7.67689 1.5953 15.2286 1.5953ZM30.1816 11.3167C30.3319 11.3728 30.4853 11.4288 30.6324 11.4912C30.5291 11.6251 30.4571 11.784 30.4571 11.9648C30.4571 12.4041 30.8172 12.7624 31.2586 12.7624C31.6281 12.7624 31.9161 12.5007 32.01 12.1642C33.7884 13.1425 35.2724 14.4668 36.3682 16.0278C36.2711 15.9873 36.1772 15.953 36.0676 15.953C35.6262 15.953 35.2661 16.3113 35.2661 16.7507C35.2661 17.19 35.6262 17.5483 36.0676 17.5483C36.4934 17.5483 36.841 17.218 36.8691 16.8005C37.2386 17.4237 37.5579 18.0905 37.7959 18.7697C37.7301 18.885 37.6706 19.0034 37.6706 19.1436C37.6706 19.4427 37.8522 19.6795 38.0964 19.8166C38.2874 20.6081 38.397 21.4213 38.397 22.2594C38.397 22.5586 38.3719 22.8608 38.3469 23.1568C37.9681 23.2191 37.6706 23.5338 37.6706 23.9295C37.6706 24.2411 37.8616 24.4966 38.1215 24.6275C37.5704 27.0204 36.2085 29.161 34.2642 30.8093L33.8885 31.1333L34.0138 31.6318C34.4208 33.2084 35.4195 34.3301 36.3682 35.1714C36.2711 35.1309 36.1772 35.0966 36.0676 35.0966C35.6262 35.0966 35.2661 35.4549 35.2661 35.8943C35.2661 35.9753 35.2943 36.0438 35.3162 36.1186C34.8059 36.0501 34.2799 35.9472 33.7132 35.7946C31.9975 35.3334 30.3256 34.676 29.2048 34.1993C29.4646 34.0684 29.6556 33.8129 29.6556 33.5013C29.6556 33.062 29.2956 32.7037 28.8541 32.7037C28.4126 32.7037 28.0526 33.062 28.0526 33.5013C28.0526 33.6104 28.087 33.7039 28.1277 33.8004L28.0025 33.8254C26.9662 33.9843 25.8923 34.1494 24.8466 34.1494C24.7307 34.1494 24.6118 34.1525 24.4959 34.1494C24.7026 34.0061 24.8466 33.7724 24.8466 33.5013C24.8466 33.062 24.4865 32.7037 24.0451 32.7037C23.6036 32.7037 23.2436 33.062 23.2436 33.5013C23.2436 33.7225 23.325 33.9313 23.469 34.0746C22.2636 33.9687 21.1021 33.7381 20.0125 33.3767C19.9499 32.9997 19.6337 32.7037 19.2361 32.7037C19.0451 32.7037 18.8729 32.7691 18.7351 32.8782C18.0839 32.5915 17.4671 32.2768 16.8817 31.906C17.3012 31.878 17.6331 31.5321 17.6331 31.1084C17.6331 30.669 17.273 30.3107 16.8316 30.3107C16.3901 30.3107 16.0301 30.669 16.0301 31.1084C16.0301 31.1987 16.052 31.2766 16.0802 31.3576C15.2661 30.7563 14.5335 30.0615 13.9011 29.3137C14.042 29.4352 14.2267 29.5131 14.4271 29.5131C14.8685 29.5131 15.2286 29.1548 15.2286 28.7154C15.2286 28.2761 14.8685 27.9178 14.4271 27.9178C13.9856 27.9178 13.6255 28.2761 13.6255 28.7154C13.6255 28.8961 13.6976 29.055 13.8009 29.189C13.2436 28.5098 12.7552 27.7931 12.3732 27.0204C12.4984 26.9581 12.5986 26.8615 12.6738 26.7462C13.4941 26.874 14.3269 26.9706 15.1534 26.9706C15.5291 26.9706 15.9111 26.9456 16.2805 26.9207C16.4245 27.0516 16.6218 27.1201 16.8316 27.1201C17.0914 27.1201 17.3106 26.9893 17.4577 26.7961C18.6788 26.6309 19.8528 26.3567 20.9643 25.9486C20.8986 26.0639 20.8391 26.1823 20.8391 26.3225C20.8391 26.7618 21.1991 27.1201 21.6406 27.1201C22.082 27.1201 22.4421 26.7618 22.4421 26.3225C22.4421 25.9548 22.1791 25.6681 21.841 25.5747C22.4828 25.2942 23.1058 24.9827 23.6944 24.6275C23.804 24.6835 23.9136 24.7272 24.0451 24.7272C24.4865 24.7272 24.8466 24.3688 24.8466 23.9295C24.8466 23.9108 24.8215 23.8984 24.8215 23.8797C25.4853 23.3936 26.1115 22.8608 26.675 22.2844C26.9505 22.2002 27.1415 21.9697 27.201 21.6861C27.7051 21.1097 28.1841 20.5146 28.5786 19.8665C28.6694 19.9008 28.7508 19.9413 28.8541 19.9413C29.2956 19.9413 29.6556 19.5829 29.6556 19.1436C29.6556 18.8632 29.4991 18.6389 29.2799 18.4955C29.9812 16.9501 30.382 15.2613 30.382 13.4853C30.382 12.7468 30.31 12.0208 30.1816 11.3167ZM33.6631 13.5601C33.2217 13.5601 32.8616 13.9184 32.8616 14.3577C32.8616 14.797 33.2217 15.1554 33.6631 15.1554C34.1046 15.1554 34.4646 14.797 34.4646 14.3577C34.4646 13.9184 34.1046 13.5601 33.6631 13.5601ZM31.2586 15.953C30.8172 15.953 30.4571 16.3113 30.4571 16.7507C30.4571 17.19 30.8172 17.5483 31.2586 17.5483C31.7001 17.5483 32.0601 17.19 32.0601 16.7507C32.0601 16.3113 31.7001 15.953 31.2586 15.953ZM33.6631 18.346C33.2217 18.346 32.8616 18.7043 32.8616 19.1436C32.8616 19.5829 33.2217 19.9413 33.6631 19.9413C34.1046 19.9413 34.4646 19.5829 34.4646 19.1436C34.4646 18.7043 34.1046 18.346 33.6631 18.346ZM31.2586 20.7389C30.8172 20.7389 30.4571 21.0972 30.4571 21.5366C30.4571 21.9759 30.8172 22.3342 31.2586 22.3342C31.7001 22.3342 32.0601 21.9759 32.0601 21.5366C32.0601 21.0972 31.7001 20.7389 31.2586 20.7389ZM36.0676 20.7389C35.6262 20.7389 35.2661 21.0972 35.2661 21.5366C35.2661 21.9759 35.6262 22.3342 36.0676 22.3342C36.5091 22.3342 36.8691 21.9759 36.8691 21.5366C36.8691 21.0972 36.5091 20.7389 36.0676 20.7389ZM28.8541 23.1319C28.4126 23.1319 28.0526 23.4902 28.0526 23.9295C28.0526 24.3688 28.4126 24.7272 28.8541 24.7272C29.2956 24.7272 29.6556 24.3688 29.6556 23.9295C29.6556 23.4902 29.2956 23.1319 28.8541 23.1319ZM33.6631 23.1319C33.2217 23.1319 32.8616 23.4902 32.8616 23.9295C32.8616 24.3688 33.2217 24.7272 33.6631 24.7272C34.1046 24.7272 34.4646 24.3688 34.4646 23.9295C34.4646 23.4902 34.1046 23.1319 33.6631 23.1319ZM26.4496 25.5248C26.0081 25.5248 25.6481 25.8831 25.6481 26.3225C25.6481 26.7618 26.0081 27.1201 26.4496 27.1201C26.891 27.1201 27.2511 26.7618 27.2511 26.3225C27.2511 25.8831 26.891 25.5248 26.4496 25.5248ZM31.2586 25.5248C30.8172 25.5248 30.4571 25.8831 30.4571 26.3225C30.4571 26.7618 30.8172 27.1201 31.2586 27.1201C31.7001 27.1201 32.0601 26.7618 32.0601 26.3225C32.0601 25.8831 31.7001 25.5248 31.2586 25.5248ZM36.0676 25.5248C35.6262 25.5248 35.2661 25.8831 35.2661 26.3225C35.2661 26.7618 35.6262 27.1201 36.0676 27.1201C36.5091 27.1201 36.8691 26.7618 36.8691 26.3225C36.8691 25.8831 36.5091 25.5248 36.0676 25.5248ZM19.2361 27.9178C18.7946 27.9178 18.4346 28.2761 18.4346 28.7154C18.4346 29.1548 18.7946 29.5131 19.2361 29.5131C19.6775 29.5131 20.0376 29.1548 20.0376 28.7154C20.0376 28.2761 19.6775 27.9178 19.2361 27.9178ZM24.0451 27.9178C23.6036 27.9178 23.2436 28.2761 23.2436 28.7154C23.2436 29.1548 23.6036 29.5131 24.0451 29.5131C24.4865 29.5131 24.8466 29.1548 24.8466 28.7154C24.8466 28.2761 24.4865 27.9178 24.0451 27.9178ZM28.8541 27.9178C28.4126 27.9178 28.0526 28.2761 28.0526 28.7154C28.0526 29.1548 28.4126 29.5131 28.8541 29.5131C29.2956 29.5131 29.6556 29.1548 29.6556 28.7154C29.6556 28.2761 29.2956 27.9178 28.8541 27.9178ZM33.6631 27.9178C33.2217 27.9178 32.8616 28.2761 32.8616 28.7154C32.8616 29.1548 33.2217 29.5131 33.6631 29.5131C34.1046 29.5131 34.4646 29.1548 34.4646 28.7154C34.4646 28.2761 34.1046 27.9178 33.6631 27.9178ZM21.6406 30.3107C21.1991 30.3107 20.8391 30.669 20.8391 31.1084C20.8391 31.5477 21.1991 31.906 21.6406 31.906C22.082 31.906 22.4421 31.5477 22.4421 31.1084C22.4421 30.669 22.082 30.3107 21.6406 30.3107ZM26.4496 30.3107C26.0081 30.3107 25.6481 30.669 25.6481 31.1084C25.6481 31.5477 26.0081 31.906 26.4496 31.906C26.891 31.906 27.2511 31.5477 27.2511 31.1084C27.2511 30.669 26.891 30.3107 26.4496 30.3107ZM31.2586 30.3107C30.8172 30.3107 30.4571 30.669 30.4571 31.1084C30.4571 31.5477 30.8172 31.906 31.2586 31.906C31.7001 31.906 32.0601 31.5477 32.0601 31.1084C32.0601 30.669 31.7001 30.3107 31.2586 30.3107ZM33.6631 32.7037C33.2217 32.7037 32.8616 33.062 32.8616 33.5013C32.8616 33.9407 33.2217 34.299 33.6631 34.299C34.1046 34.299 34.4646 33.9407 34.4646 33.5013C34.4646 33.062 34.1046 32.7037 33.6631 32.7037ZM36.7188 35.4456C36.7533 35.4736 36.7846 35.5173 36.819 35.5453C37.1509 35.8195 37.3889 35.9878 37.6456 36.1934C37.3763 36.2183 37.082 36.2214 36.7689 36.2183C36.819 36.1155 36.8691 36.0158 36.8691 35.8943C36.8691 35.726 36.8096 35.5733 36.7188 35.4456Z" fill="white"/>
</svg>
